HIERARCHY
ROOT joint_0
{
	OFFSET 0.000000 0.000000 0.000000
	CHANNELS 6 Xposition Yposition Zposition Zrotation Yrotation Xrotation 
	JOINT joint_1
	{
		OFFSET 13.542969 -4.074463 123.986084
		CHANNELS 3 Zrotation Yrotation Xrotation
		JOINT joint_2
		{
			OFFSET -0.108154 -3.018066 113.860962
			CHANNELS 3 Zrotation Yrotation Xrotation
			JOINT joint_3
			{
				OFFSET -1.139648 -3.876465 113.702026
				CHANNELS 3 Zrotation Yrotation Xrotation
				JOINT joint_4
				{
					OFFSET 13.593506 -8.582153 160.876953
					CHANNELS 3 Zrotation Yrotation Xrotation
					JOINT joint_5
					{
						OFFSET 26.480957 -11.565674 94.427979
						CHANNELS 3 Zrotation Yrotation Xrotation
						End Site
						{
							OFFSET 0.000000 0.000000 0.000000
						}
					}
				}
				JOINT joint_6
				{
					OFFSET 3.003662 -39.658691 88.713989
					CHANNELS 3 Zrotation Yrotation Xrotation
					JOINT joint_7
					{
						OFFSET -25.253906 -162.506348 -28.477051
						CHANNELS 3 Zrotation Yrotation Xrotation
						JOINT joint_8
						{
							OFFSET 23.083252 -8.502686 -295.281982
							CHANNELS 3 Zrotation Yrotation Xrotation
							JOINT joint_9
							{
								OFFSET 20.205566 -32.167908 -263.458008
								CHANNELS 3 Zrotation Yrotation Xrotation
								End Site
								{
									OFFSET 0.000000 0.000000 0.000000
								}
							}
						}
					}
				}
				JOINT joint_10
				{
					OFFSET 12.313232 30.012939 91.642944
					CHANNELS 3 Zrotation Yrotation Xrotation
					JOINT joint_11
					{
						OFFSET 31.960205 162.667969 -19.398926
						CHANNELS 3 Zrotation Yrotation Xrotation
						JOINT joint_12
						{
							OFFSET 51.325195 40.249023 -289.038086
							CHANNELS 3 Zrotation Yrotation Xrotation
							JOINT joint_13
							{
								OFFSET 70.170898 60.433594 -249.556030
								CHANNELS 3 Zrotation Yrotation Xrotation
								End Site
								{
									OFFSET 0.000000 0.000000 0.000000
								}
							}
						}
					}
				}
			}
		}
	}
	JOINT joint_14
	{
		OFFSET -15.093262 -91.803833 -113.326904
		CHANNELS 3 Zrotation Yrotation Xrotation
		JOINT joint_15
		{
			OFFSET 2.288818 -12.306763 -494.206055
			CHANNELS 3 Zrotation Yrotation Xrotation
			JOINT joint_16
			{
				OFFSET -54.691650 0.383423 -424.447006
				CHANNELS 3 Zrotation Yrotation Xrotation
				JOINT joint_17
				{
					OFFSET 202.154297 -21.791382 -80.181999
					CHANNELS 3 Zrotation Yrotation Xrotation
					End Site
					{
						OFFSET 0.000000 0.000000 0.000000
					}
				}
			}
		}
	}
	JOINT joint_18
	{
		OFFSET 10.704102 91.957275 -113.713013
		CHANNELS 3 Zrotation Yrotation Xrotation
		JOINT joint_19
		{
			OFFSET 0.427490 1.374878 -494.359924
			CHANNELS 3 Zrotation Yrotation Xrotation
			JOINT joint_20
			{
				OFFSET -53.071777 2.769531 -424.643028
				CHANNELS 3 Zrotation Yrotation Xrotation
				JOINT joint_21
				{
					OFFSET 200.264648 -28.253052 -82.862999
					CHANNELS 3 Zrotation Yrotation Xrotation
					End Site
					{
						OFFSET 0.000000 0.000000 0.000000
					}
				}
			}
		}
	}
}
MOTION
Frames: 15
Frame Time: 0.016667
-2636.835449 1336.685303 1104.551025 29.751779 -5.177843 3.478801 1.811434 1.266050 4.627938 1.598855 -0.153836 -0.792716 1.543645 0.219000 0.747028 -0.003125 1.299404 0.457113 0.000000 0.000000 0.000000 3.202998 -2.725156 4.284874 -0.846094 0.434101 -8.873376 0.097805 -1.508766 -2.939008 0.000000 0.000000 0.000000 4.427772 3.110147 2.378768 -0.183257 4.075308 0.436848 1.425156 1.892288 2.405421 0.000000 0.000000 0.000000 -2.771662 -9.916846 3.939502 -4.515545 34.276809 1.274379 3.620584 -8.952429 0.275529 0.000000 0.000000 0.000000 -9.935086 -24.630020 0.763826 -11.285085 63.738386 -10.711556 -4.801558 5.146174 -0.979634 0.000000 0.000000 0.000000 
-2622.326904 1336.698608 1107.909058 28.463864 -5.142148 3.450945 2.059501 1.173360 4.389776 1.866393 -0.142801 -0.732159 1.815364 0.177722 0.711825 -0.004215 1.438403 0.510302 0.000000 0.000000 0.000000 3.251451 -2.592918 4.125428 -0.551422 0.305732 -7.874175 0.315457 -2.182474 -2.421317 0.000000 0.000000 0.000000 4.579287 3.284986 2.509635 -0.439534 4.194406 0.478803 0.895965 1.262641 1.403296 0.000000 0.000000 0.000000 -2.104836 -8.598014 4.081940 -3.770399 33.106692 2.097816 4.091341 -8.782714 0.460062 0.000000 0.000000 0.000000 -9.424798 -25.676469 0.073838 -10.594054 60.985721 -9.280779 -5.393869 4.821435 -1.197514 0.000000 0.000000 0.000000 
-2607.805176 1336.827881 1111.222046 27.132912 -5.048481 3.417761 2.279758 1.060861 4.116270 2.105605 -0.134444 -0.661311 2.059692 0.136500 0.667972 -0.006579 1.551851 0.560571 0.000000 0.000000 0.000000 3.281000 -2.438132 3.922612 -0.252648 0.210223 -7.040037 0.601655 -3.123625 -1.526565 0.000000 0.000000 0.000000 4.702638 3.464527 2.620928 -0.641486 4.306523 0.517374 0.472444 0.774792 0.626856 0.000000 0.000000 0.000000 -1.444218 -7.340206 4.191075 -2.996117 31.913808 2.915729 4.594695 -8.556665 0.663126 0.000000 0.000000 0.000000 -8.856858 -26.499642 -0.628636 -9.799715 57.702935 -7.903058 -5.705331 4.452060 -1.339939 0.000000 0.000000 0.000000 
-2593.282715 1337.142822 1114.534058 25.745239 -4.878293 3.360700 2.476931 0.909149 3.824313 2.317612 -0.125549 -0.578775 2.276837 0.094931 0.611887 -0.008475 1.639486 0.601638 0.000000 0.000000 0.000000 3.274406 -2.287008 3.678916 -0.005611 0.139034 -6.456126 0.919215 -4.326990 -0.116839 0.000000 0.000000 0.000000 4.789082 3.636484 2.696590 -0.737794 4.403671 0.514470 0.235734 0.540850 0.159953 0.000000 0.000000 0.000000 -0.784572 -6.158090 4.291252 -2.195885 30.680275 3.708747 5.110762 -8.266054 0.878749 0.000000 0.000000 0.000000 -8.178663 -27.078801 -1.376887 -8.841004 53.781816 -6.487536 -5.547447 4.008096 -1.349067 0.000000 0.000000 0.000000 
-2578.745850 1337.573975 1117.802002 24.301367 -4.657396 3.286698 2.653436 0.743304 3.507734 2.505559 -0.123224 -0.486679 2.470417 0.052881 0.547105 -0.010650 1.703300 0.636809 0.000000 0.000000 0.000000 3.243479 -2.132933 3.402389 0.142332 0.102751 -6.059256 1.198861 -5.791927 1.729819 0.000000 0.000000 0.000000 4.844405 3.806151 2.759621 -0.762423 4.496414 0.501156 0.118478 0.461808 -0.113552 0.000000 0.000000 0.000000 -0.115876 -5.031003 4.357643 -1.373453 29.423454 4.499945 5.658911 -7.916450 1.113016 0.000000 0.000000 0.000000 -7.453816 -27.364053 -2.140711 -7.805904 49.123030 -5.107913 -5.187208 3.801903 -1.265708 0.000000 0.000000 0.000000 
-2564.011230 1338.034180 1120.413940 22.851592 -4.420384 3.193320 2.798123 0.570167 3.181336 2.660749 -0.118120 -0.387982 2.630658 0.010184 0.483139 -0.016082 1.730358 0.673136 0.000000 0.000000 0.000000 3.214170 -1.999532 3.118399 0.144817 0.082645 -5.744911 1.354934 -7.257390 3.755199 0.000000 0.000000 0.000000 4.879060 3.961644 2.824697 -0.741816 4.573338 0.515595 0.063119 0.459105 -0.283162 0.000000 0.000000 0.000000 0.535750 -4.012071 4.435995 -0.579595 28.364829 5.206795 6.250816 -7.588065 1.359882 0.000000 0.000000 0.000000 -6.930388 -27.402675 -2.816141 -7.037246 44.133208 -4.118435 -5.309447 3.861011 -1.319471 0.000000 0.000000 0.000000 
-2549.081787 1338.531372 1122.331055 21.458727 -4.125374 3.112853 2.894691 0.328200 2.817590 2.762801 -0.078720 -0.266357 2.732945 -0.041687 0.417461 -0.024439 1.694610 0.699832 0.000000 0.000000 0.000000 3.181324 -1.844350 2.805522 0.004825 0.108553 -5.465383 1.381082 -8.700826 6.002748 0.000000 0.000000 0.000000 4.895131 4.096770 2.900385 -0.677743 4.635462 0.548637 0.073889 0.541201 -0.341178 0.000000 0.000000 0.000000 1.161214 -3.169534 4.524640 0.169036 27.558727 5.768270 6.870134 -7.324490 1.608235 0.000000 0.000000 0.000000 -6.791396 -27.261960 -3.439957 -6.756009 38.672439 -3.646888 -6.175722 4.029237 -1.631768 0.000000 0.000000 0.000000 
-2533.955566 1339.056641 1123.593018 20.017089 -3.828286 2.982816 2.974486 0.108715 2.503888 2.847286 -0.050966 -0.166986 2.818183 -0.094017 0.354244 -0.037606 1.624064 0.731838 0.000000 0.000000 0.000000 3.143900 -1.716645 2.490273 -0.291121 0.149525 -5.290227 1.278832 -10.062121 8.493333 0.000000 0.000000 0.000000 4.884437 4.218668 2.982456 -0.572927 4.684612 0.614563 0.142851 0.711835 -0.310361 0.000000 0.000000 0.000000 1.795732 -2.421948 4.669608 0.906041 26.961449 6.243433 7.538164 -7.097499 1.868087 0.000000 0.000000 0.000000 -6.933825 -26.828997 -3.916204 -6.872213 32.666064 -3.469346 -7.299885 4.441095 -2.009924 0.000000 0.000000 0.000000 
-2518.440918 1339.496948 1123.704956 18.432297 -3.669935 2.711884 3.067264 0.033304 2.323030 2.950072 -0.076870 -0.138479 2.926990 -0.128501 0.307797 -0.064438 1.592385 0.825962 0.000000 0.000000 0.000000 3.147318 -1.747289 2.241257 -0.680761 0.093120 -5.239725 1.096574 -11.063002 10.855114 0.000000 0.000000 0.000000 4.848588 4.341741 3.073735 -0.456094 4.717439 0.784979 0.195433 0.872813 -0.312371 0.000000 0.000000 0.000000 2.439555 -1.648472 4.921218 1.631059 26.662075 6.755992 8.310309 -6.908614 2.156285 0.000000 0.000000 0.000000 -7.170953 -26.082375 -4.047405 -7.203519 26.986182 -3.434520 -8.239194 5.045321 -2.288898 0.000000 0.000000 0.000000 
-2502.566895 1339.848511 1122.446045 16.809248 -3.651971 2.354270 3.140087 0.014077 2.127684 3.038319 -0.087790 -0.115742 3.020098 -0.141905 0.292415 -0.119422 1.606325 1.034826 0.000000 0.000000 0.000000 3.192395 -2.010541 2.056741 -1.097034 -0.140310 -5.352724 0.901631 -11.565796 12.895118 0.000000 0.000000 0.000000 4.787088 4.473111 3.200438 -0.346272 4.742356 1.092789 0.188168 0.975652 -0.437283 0.000000 0.000000 0.000000 3.016911 -0.832487 5.226327 2.280414 26.657639 7.318881 9.108773 -6.801048 2.439443 0.000000 0.000000 0.000000 -7.631830 -25.181368 -3.810975 -7.877289 21.842755 -3.771379 -9.294849 5.295242 -2.653017 0.000000 0.000000 0.000000 
-2486.304443 1340.114990 1120.037964 15.187509 -3.736963 1.941054 3.184320 0.012882 1.906409 3.098616 -0.085180 -0.092872 3.084020 -0.143119 0.292240 -0.188288 1.669146 1.308653 0.000000 0.000000 0.000000 3.274242 -2.417419 1.928952 -1.505606 -0.483781 -5.547586 0.719947 -11.754410 14.715358 0.000000 0.000000 0.000000 4.700610 4.615414 3.346994 -0.227239 4.764290 1.509294 0.161196 1.061536 -0.600940 0.000000 0.000000 0.000000 3.552314 -0.032869 5.535499 2.876230 26.966869 7.946612 9.991309 -6.753007 2.739895 0.000000 0.000000 0.000000 -8.206577 -24.114918 -3.407787 -8.683838 17.157997 -4.166218 -10.243618 5.271217 -3.008508 0.000000 0.000000 0.000000 
-2469.373047 1340.189941 1116.651001 13.582950 -3.927547 1.455749 3.202353 0.021770 1.712190 3.127325 -0.113164 -0.088477 3.118360 -0.133476 0.271553 -0.236055 1.844535 1.553080 0.000000 0.000000 0.000000 3.436370 -2.830303 1.885678 -1.855470 -0.823175 -5.622381 0.566683 -11.895529 16.345182 0.000000 0.000000 0.000000 4.597393 4.773192 3.456491 -0.069838 4.776838 2.013358 0.169850 1.168183 -0.661121 0.000000 0.000000 0.000000 4.120610 0.661751 5.764660 3.472750 27.716811 8.806750 11.187961 -6.677788 3.145834 0.000000 0.000000 0.000000 -8.271573 -22.930860 -3.175227 -8.795359 14.085592 -4.068292 -10.237093 5.394960 -2.988966 0.000000 0.000000 0.000000 
-2451.053955 1340.033813 1111.928955 12.110758 -4.194494 0.892234 3.138619 -0.140919 1.441788 3.069780 -0.134442 -0.025453 3.064595 -0.132228 0.223292 -0.240660 2.227764 1.736242 0.000000 0.000000 0.000000 3.726954 -3.191192 1.901263 -2.187365 -1.106737 -5.487172 0.409201 -12.111014 18.087691 0.000000 0.000000 0.000000 4.484873 5.015215 3.514802 0.130179 4.827166 2.693806 0.194774 1.299878 -0.683767 0.000000 0.000000 0.000000 4.673018 1.295876 5.912929 4.021796 28.845737 9.952486 12.718339 -6.534072 3.667069 0.000000 0.000000 0.000000 -7.323098 -21.588083 -3.391075 -7.552186 13.530363 -3.496157 -8.720535 5.701963 -2.397647 0.000000 0.000000 0.000000 
-2432.064697 1339.687012 1106.229004 10.750014 -4.546557 0.332271 3.012842 -0.357856 1.064683 2.958263 -0.139657 0.085902 2.953630 -0.144870 0.153160 -0.220599 2.708989 1.885035 0.000000 0.000000 0.000000 4.094068 -3.529823 1.961251 -2.447926 -1.369699 -5.199314 0.288855 -12.315856 19.632316 0.000000 0.000000 0.000000 4.354066 5.280020 3.528588 0.374357 4.882548 3.486478 0.251938 1.466420 -0.625415 0.000000 0.000000 0.000000 5.210661 1.813072 5.915936 4.509900 30.398285 11.292092 14.592522 -6.258015 4.312753 0.000000 0.000000 0.000000 -5.760265 -20.209734 -3.842577 -5.553773 14.686077 -2.721225 -6.388902 5.699407 -1.550457 0.000000 0.000000 0.000000 
-2414.279785 1339.171753 1100.782959 9.465837 -4.960463 -0.032866 2.903697 -0.342433 0.546421 2.867975 -0.155700 0.185726 2.863562 -0.140289 0.050571 -0.207958 3.041108 2.008369 0.000000 0.000000 0.000000 4.405331 -3.826894 2.092698 -2.453400 -1.625158 -4.778045 0.325255 -12.548419 20.114317 0.000000 0.000000 0.000000 4.166812 5.362586 3.473999 0.676032 4.799858 4.150837 0.456015 1.750293 -0.178170 0.000000 0.000000 0.000000 5.789182 1.888655 5.505111 4.979406 32.653440 12.788745 17.051564 -5.724371 5.179441 0.000000 0.000000 0.000000 -4.448450 -19.321996 -4.243684 -3.930860 16.569359 -1.855729 -4.460837 5.053094 -0.932264 0.000000 0.000000 0.000000 
